<svg xmlns="http://www.w3.org/2000/svg" viewBox="0 0 860 440" width="860" height="440" font-family="ui-sans-serif, system-ui, -apple-system, Segoe UI, Roboto, sans-serif">
  <rect width="860" height="440" rx="14" fill="#10151c"/>
  <text x="72" y="30" fill="#f5f6f8" font-size="17" font-weight="600">APY distribution — 2026-07-20</text>
  <text x="72" y="48" fill="#6b7280" font-size="12">5,300 graded pools · 0–50% shown · 126 pools above 50% not pictured</text>
  <line x1="72" y1="376" x2="832" y2="376" stroke="rgba(255,255,255,0.07)" stroke-width="1"/><text x="62" y="380" fill="#6b7280" font-size="11" text-anchor="end">0</text><line x1="72" y1="296" x2="832" y2="296" stroke="rgba(255,255,255,0.07)" stroke-width="1"/><text x="62" y="300" fill="#6b7280" font-size="11" text-anchor="end">402</text><line x1="72" y1="216" x2="832" y2="216" stroke="rgba(255,255,255,0.07)" stroke-width="1"/><text x="62" y="220" fill="#6b7280" font-size="11" text-anchor="end">804</text><line x1="72" y1="136" x2="832" y2="136" stroke="rgba(255,255,255,0.07)" stroke-width="1"/><text x="62" y="140" fill="#6b7280" font-size="11" text-anchor="end">1,206</text><line x1="72" y1="56" x2="832" y2="56" stroke="rgba(255,255,255,0.07)" stroke-width="1"/><text x="62" y="60" fill="#6b7280" font-size="11" text-anchor="end">1,608</text><rect x="72.25" y="56" width="14.7" height="320" fill="#2f88ff" rx="3"><title>0–1%: 1,608</title></rect><text x="79.6" y="394" fill="#6b7280" font-size="11" text-anchor="middle">0–1%</text><rect x="87.45" y="274.11" width="14.7" height="101.89" fill="#2f88ff" rx="3"><title>1–2%: 512</title></rect><rect x="102.65" y="283.46" width="14.7" height="92.54" fill="#2f88ff" rx="3"><title>2–3%: 465</title></rect><rect x="117.85" y="285.45" width="14.7" height="90.55" fill="#2f88ff" rx="3"><title>3–4%: 455</title></rect><rect x="133.05" y="306.15" width="14.7" height="69.85" fill="#2f88ff" rx="3"><title>4–5%: 351</title></rect><rect x="148.25" y="324.06" width="14.7" height="51.94" fill="#2f88ff" rx="3"><title>5–6%: 261</title></rect><rect x="163.45" y="331.42" width="14.7" height="44.58" fill="#2f88ff" rx="3"><title>6–7%: 224</title></rect><rect x="178.65" y="341.37" width="14.7" height="34.63" fill="#2f88ff" rx="3"><title>7–8%: 174</title></rect><rect x="193.85" y="347.54" width="14.7" height="28.46" fill="#2f88ff" rx="3"><title>8–9%: 143</title></rect><rect x="209.05" y="351.92" width="14.7" height="24.08" fill="#2f88ff" rx="3"><title>9–10%: 121</title></rect><rect x="224.25" y="358.69" width="14.7" height="17.31" fill="#2f88ff" rx="3"><title>10–11%: 87</title></rect><text x="231.6" y="394" fill="#6b7280" font-size="11" text-anchor="middle">10–11%</text><rect x="239.45" y="356.7" width="14.7" height="19.3" fill="#2f88ff" rx="3"><title>11–12%: 97</title></rect><rect x="254.65" y="363.86" width="14.7" height="12.14" fill="#2f88ff" rx="3"><title>12–13%: 61</title></rect><rect x="269.85" y="362.27" width="14.7" height="13.73" fill="#2f88ff" rx="3"><title>13–14%: 69</title></rect><rect x="285.05" y="364.26" width="14.7" height="11.74" fill="#2f88ff" rx="3"><title>14–15%: 59</title></rect><rect x="300.25" y="367.84" width="14.7" height="8.16" fill="#2f88ff" rx="3"><title>15–16%: 41</title></rect><rect x="315.45" y="369.63" width="14.7" height="6.37" fill="#2f88ff" rx="3"><title>16–17%: 32</title></rect><rect x="330.65" y="370.03" width="14.7" height="5.97" fill="#2f88ff" rx="3"><title>17–18%: 30</title></rect><rect x="345.85" y="369.03" width="14.7" height="6.97" fill="#2f88ff" rx="3"><title>18–19%: 35</title></rect><rect x="361.05" y="370.23" width="14.7" height="5.77" fill="#2f88ff" rx="3"><title>19–20%: 29</title></rect><rect x="376.25" y="371.42" width="14.7" height="4.58" fill="#2f88ff" rx="3"><title>20–21%: 23</title></rect><text x="383.6" y="394" fill="#6b7280" font-size="11" text-anchor="middle">20–21%</text><rect x="391.45" y="372.42" width="14.7" height="3.58" fill="#2f88ff" rx="3"><title>21–22%: 18</title></rect><rect x="406.65" y="372.82" width="14.7" height="3.18" fill="#2f88ff" rx="3"><title>22–23%: 16</title></rect><rect x="421.85" y="371.02" width="14.7" height="4.98" fill="#2f88ff" rx="3"><title>23–24%: 25</title></rect><rect x="437.05" y="371.22" width="14.7" height="4.78" fill="#2f88ff" rx="3"><title>24–25%: 24</title></rect><rect x="452.25" y="374.01" width="14.7" height="1.99" fill="#2f88ff" rx="3"><title>25–26%: 10</title></rect><rect x="467.45" y="371.82" width="14.7" height="4.18" fill="#2f88ff" rx="3"><title>26–27%: 21</title></rect><rect x="482.65" y="372.42" width="14.7" height="3.58" fill="#2f88ff" rx="3"><title>27–28%: 18</title></rect><rect x="497.85" y="374.21" width="14.7" height="1.79" fill="#2f88ff" rx="3"><title>28–29%: 9</title></rect><rect x="513.05" y="373.61" width="14.7" height="2.39" fill="#2f88ff" rx="3"><title>29–30%: 12</title></rect><rect x="528.25" y="373.41" width="14.7" height="2.59" fill="#2f88ff" rx="3"><title>30–31%: 13</title></rect><text x="535.6" y="394" fill="#6b7280" font-size="11" text-anchor="middle">30–31%</text><rect x="543.45" y="373.81" width="14.7" height="2.19" fill="#2f88ff" rx="3"><title>31–32%: 11</title></rect><rect x="558.65" y="373.61" width="14.7" height="2.39" fill="#2f88ff" rx="3"><title>32–33%: 12</title></rect><rect x="573.85" y="374.61" width="14.7" height="1.39" fill="#2f88ff" rx="3"><title>33–34%: 7</title></rect><rect x="589.05" y="373.41" width="14.7" height="2.59" fill="#2f88ff" rx="3"><title>34–35%: 13</title></rect><rect x="604.25" y="374.81" width="14.7" height="1.19" fill="#2f88ff" rx="3"><title>35–36%: 6</title></rect><rect x="619.45" y="374.21" width="14.7" height="1.79" fill="#2f88ff" rx="3"><title>36–37%: 9</title></rect><rect x="634.65" y="374.81" width="14.7" height="1.19" fill="#2f88ff" rx="3"><title>37–38%: 6</title></rect><rect x="649.85" y="374.01" width="14.7" height="1.99" fill="#2f88ff" rx="3"><title>38–39%: 10</title></rect><rect x="665.05" y="375.2" width="14.7" height="0.8" fill="#2f88ff" rx="3"><title>39–40%: 4</title></rect><rect x="680.25" y="375" width="14.7" height="1" fill="#2f88ff" rx="3"><title>40–41%: 5</title></rect><text x="687.6" y="394" fill="#6b7280" font-size="11" text-anchor="middle">40–41%</text><rect x="695.45" y="375.2" width="14.7" height="0.8" fill="#2f88ff" rx="3"><title>41–42%: 4</title></rect><rect x="710.65" y="374.61" width="14.7" height="1.39" fill="#2f88ff" rx="3"><title>42–43%: 7</title></rect><rect x="725.85" y="374.61" width="14.7" height="1.39" fill="#2f88ff" rx="3"><title>43–44%: 7</title></rect><rect x="741.05" y="374.21" width="14.7" height="1.79" fill="#2f88ff" rx="3"><title>44–45%: 9</title></rect><rect x="756.25" y="375" width="14.7" height="1" fill="#2f88ff" rx="3"><title>45–46%: 5</title></rect><rect x="771.45" y="374.01" width="14.7" height="1.99" fill="#2f88ff" rx="3"><title>46–47%: 10</title></rect><rect x="786.65" y="375.6" width="14.7" height="0.4" fill="#2f88ff" rx="3"><title>47–48%: 2</title></rect><rect x="801.85" y="375.4" width="14.7" height="0.6" fill="#2f88ff" rx="3"><title>48–49%: 3</title></rect><rect x="817.05" y="375.8" width="14.7" height="0.2" fill="#2f88ff" rx="3"><title>49–50%: 1</title></rect><line x1="72" y1="376" x2="832" y2="376" stroke="rgba(255,255,255,0.18)" stroke-width="1"/><text x="452" y="424" fill="#a6adba" font-size="12" text-anchor="middle">APY (%)</text>
</svg>
